<?xml version="1.0" encoding="UTF-8" standalone="no"?>
<!-- Created with Inkscape (http://www.inkscape.org/) -->

<svg
   width="210mm"
   height="297mm"
   viewBox="0 0 210 297"
   version="1.1"
   id="svg1"
   inkscape:version="1.3.2 (091e20e, 2023-11-25)"
   sodipodi:docname="first-order.svg"
   xmlns:inkscape="http://www.inkscape.org/namespaces/inkscape"
   xmlns:sodipodi="http://sodipodi.sourceforge.net/DTD/sodipodi-0.dtd"
   xmlns="http://www.w3.org/2000/svg"
   xmlns:svg="http://www.w3.org/2000/svg">
  <sodipodi:namedview
     id="namedview1"
     pagecolor="#ffffff"
     bordercolor="#666666"
     borderopacity="1.0"
     inkscape:showpageshadow="2"
     inkscape:pageopacity="0.0"
     inkscape:pagecheckerboard="0"
     inkscape:deskcolor="#d1d1d1"
     inkscape:document-units="mm"
     inkscape:zoom="0.2102413"
     inkscape:cx="394.78447"
     inkscape:cy="558.88162"
     inkscape:window-width="736"
     inkscape:window-height="480"
     inkscape:window-x="224"
     inkscape:window-y="25"
     inkscape:window-maximized="0"
     inkscape:current-layer="FO_01" />
  <defs
     id="defs1" />
  <g
     inkscape:label="Layer 1"
     inkscape:groupmode="layer"
     id="layer1">
    <g
       id="FO_01"
       transform="matrix(0.26458333,0,0,0.26458333,-114.69687,-101.01791)">
      <g
         id="g87"
         transform="translate(4.7564394,-199.77045)">
        <path
           class="st0"
           d="m 898.5,931.9 c 0.6,6.6 0.2,13.4 -1.4,19.9 -1.1,4.4 -2.7,8.8 -4.7,12.9 -1.4,2.9 -3,5.7 -4.8,8.4 -1.3,1.9 -2.6,3.7 -4,5.5 1.7,-1.2 3.3,-2.8 4.7,-4.4 1.9,-2.2 3.4,-4.7 4.9,-7.2 1.4,-2.4 2.7,-4.9 3.8,-7.4 0.8,-1.9 1.6,-3.8 2.3,-5.7 -0.3,2.6 -0.8,5.3 -1.5,7.9 -0.6,2.5 -1.4,4.9 -2.2,7.3 -1.9,5 -4.4,9.9 -7.4,14.3 -3.5,5.2 -7.8,10 -12.6,14 -5.8,4.8 -12.5,8.4 -19.5,11 -7.3,2.6 -15,4 -22.7,4.5 -9,0.5 -18.1,-0.2 -26.8,-2.5 -7.6,-2 -14.8,-5.3 -21.3,-9.7 -4.3,-2.9 -8.3,-6.4 -11.7,-10.3 -2.7,-3.1 -5.1,-6.5 -7.2,-10.1 -3,-5.2 -5.5,-10.6 -7.1,-16.3 -0.9,-3.2 -1.6,-6.5 -2,-10 0.8,1.9 1.5,3.8 2.3,5.7 1.1,2.5 2.4,5 3.8,7.4 1.4,2.5 3,5 4.9,7.2 1.4,1.7 3,3.2 4.7,4.4 -1.3,-1.8 -2.7,-3.6 -4,-5.5 -1.8,-2.7 -3.4,-5.5 -4.8,-8.4 -2,-4.1 -3.6,-8.4 -4.6,-12.9 -1.6,-6.5 -2,-13.2 -1.4,-19.9 0.6,-6.6 2.3,-13 4.9,-19 0.7,-1.7 1.5,-3.3 2.4,-4.9 0.6,-1.2 1.3,-2.4 2.1,-3.4 -0.5,1.1 -1.1,2.2 -1.5,3.3 -0.9,2.2 -1.6,4.6 -2,7 -0.7,3.7 -0.7,7.4 -0.3,11.1 0.5,4.1 1.7,8 3.2,11.9 1.2,3 2.7,5.9 4.3,8.6 1.7,2.8 3.6,5.5 5.7,8.1 1.2,1.5 2.5,2.9 3.8,4.2 -1.8,-3.1 -3.5,-6.1 -5,-9.3 -1.7,-3.6 -3,-7.3 -4,-11.1 -1.3,-5 -2.1,-10.1 -2,-15.3 0,-5 0.8,-10.1 2.3,-14.9 1.6,-5 3.9,-9.9 6.8,-14.3 2.9,-4.4 6.3,-8.5 10,-12.2 2.2,-2.2 4.5,-4.2 7,-6.1 1.4,-1 2.8,-2 4.2,-3 -1.3,1.1 -2.6,2.2 -3.9,3.3 -2.3,2.1 -4.3,4.7 -5.7,7.5 -1.3,2.5 -2.2,5.3 -2.8,8.1 -0.7,3.7 -0.6,7.6 0,11.3 0.9,5.2 2.8,10.1 5.2,14.8 1.5,3 3.2,5.8 5,8.5 1.6,2.4 3.4,4.8 5.4,7 -1.2,2.1 -2.2,4.3 -3.2,6.5 -1.6,3.6 -2.8,7.3 -3.7,11.1 -1.2,5 -1.6,10.2 -1.2,15.4 0.5,5.5 2.1,10.8 4.6,15.7 2.5,4.9 5.8,9.3 9.7,13.2 4.6,4.5 9.9,8.3 15.5,11.1 0.2,-9.1 0.5,-18.1 0.7,-27.2 -3.6,3.8 -7.3,7.7 -10.9,11.5 2.6,-5 5.1,-10 7.7,-15.1 -6.6,-1 -13.2,-1.9 -19.9,-2.9 6.6,-1 13.2,-1.9 19.9,-2.9 -2.1,-5.9 -4.3,-11.8 -6.4,-17.6 3.3,4.9 6.6,9.7 10,14.6 0.8,-32.7 1.7,-65.4 2.5,-98.2 0.8,32.7 1.7,65.4 2.5,98.2 3.3,-4.9 6.7,-9.7 10,-14.6 -2.1,5.9 -4.3,11.8 -6.4,17.6 6.6,1 13.2,1.9 19.8,2.9 -6.6,1 -13.2,1.9 -19.8,2.9 2.6,5 5.1,10 7.7,15.1 -3.6,-3.8 -7.3,-7.7 -10.9,-11.5 0.2,9.1 0.5,18.1 0.7,27.2 5.5,-2.8 10.9,-6.6 15.4,-11.1 3.9,-3.9 7.2,-8.3 9.7,-13.2 2.5,-4.9 4.1,-10.3 4.6,-15.7 0.5,-5.1 0,-10.3 -1.1,-15.4 -0.9,-3.8 -2.1,-7.5 -3.7,-11.1 -1,-2.2 -2.1,-4.4 -3.2,-6.5 1.9,-2.3 3.7,-4.6 5.4,-7 1.8,-2.7 3.5,-5.6 5,-8.5 2.4,-4.7 4.4,-9.6 5.2,-14.8 0.6,-3.7 0.7,-7.6 0,-11.3 -0.5,-2.8 -1.4,-5.5 -2.8,-8.1 -1.5,-2.8 -3.5,-5.3 -5.7,-7.5 -1.3,-1.2 -2.6,-2.2 -3.9,-3.3 1.4,1 2.8,1.9 4.2,3 2.5,1.8 4.8,3.9 7,6.1 3.7,3.7 7.1,7.8 10,12.2 2.9,4.4 5.2,9.3 6.7,14.3 1.5,4.8 2.3,9.9 2.3,14.9 0,5.2 -0.7,10.3 -2,15.3 -1,3.8 -2.4,7.5 -4,11.1 -1.5,3.2 -3.2,6.2 -5,9.3 1.3,-1.3 2.6,-2.7 3.8,-4.2 2.1,-2.6 4,-5.2 5.7,-8.1 1.7,-2.8 3.1,-5.6 4.3,-8.6 1.5,-3.8 2.7,-7.8 3.2,-11.9 0.5,-3.7 0.4,-7.4 -0.3,-11.1 -0.4,-2.4 -1.1,-4.7 -2,-7 -0.5,-1.1 -1,-2.2 -1.6,-3.3 0.7,1.1 1.4,2.3 2.1,3.4 0.9,1.6 1.7,3.2 2.4,4.9 2.3,5.9 4,12.4 4.6,18.9 z"
           id="path86"
           style="fill:#160032" />
        <path
           class="st0"
           d="m 828.3,848.8 c 50.7,0 91.8,41.1 91.8,91.8 0,50.7 -41.1,91.8 -91.8,91.8 -50.7,0 -91.8,-41.1 -91.8,-91.8 0.1,-50.7 41.2,-91.8 91.8,-91.8 z m 80.8,91.8 c 0,-44.6 -36.2,-80.8 -80.8,-80.8 -44.6,0 -80.8,36.2 -80.8,80.8 0,44.6 36.2,80.8 80.8,80.8 44.6,0 80.8,-36.2 80.8,-80.8 z"
           id="path87"
           style="fill:#160032" />
      </g>
    </g>
  </g>
</svg>
