<?xml version="1.0" encoding="UTF-8" standalone="no"?>
<!-- Created with Inkscape (http://www.inkscape.org/) -->

<svg
   width="210mm"
   height="297mm"
   viewBox="0 0 210 297"
   version="1.1"
   id="svg1"
   inkscape:version="1.3.2 (091e20e, 2023-11-25)"
   sodipodi:docname="galactic-republic.svg"
   xmlns:inkscape="http://www.inkscape.org/namespaces/inkscape"
   xmlns:sodipodi="http://sodipodi.sourceforge.net/DTD/sodipodi-0.dtd"
   xmlns="http://www.w3.org/2000/svg"
   xmlns:svg="http://www.w3.org/2000/svg">
  <sodipodi:namedview
     id="namedview1"
     pagecolor="#ffffff"
     bordercolor="#666666"
     borderopacity="1.0"
     inkscape:showpageshadow="2"
     inkscape:pageopacity="0.0"
     inkscape:pagecheckerboard="0"
     inkscape:deskcolor="#d1d1d1"
     inkscape:document-units="mm"
     inkscape:zoom="0.2102413"
     inkscape:cx="394.78447"
     inkscape:cy="558.88162"
     inkscape:window-width="736"
     inkscape:window-height="480"
     inkscape:window-x="196"
     inkscape:window-y="62"
     inkscape:window-maximized="0"
     inkscape:current-layer="layer1" />
  <defs
     id="defs1" />
  <g
     inkscape:label="Layer 1"
     inkscape:groupmode="layer"
     id="layer1">
    <g
       id="GR_01"
       transform="matrix(0.26458333,0,0,0.26458333,-8.7047917,-169.78313)">
      <g
         id="g97">
        <path
           class="st0"
           d="m 476,932.4 h -9.2 c -1.6,-11.8 -6.2,-22.9 -13.4,-32.3 l 6.5,-6.5 c 8.8,11.2 14.4,24.6 16.1,38.8 z"
           id="path88"
           style="fill:#160032" />
        <path
           class="st0"
           d="m 466.8,950.8 h 9.2 c -1.7,14.2 -7.3,27.6 -16.1,38.8 l -6.5,-6.5 c 7.2,-9.4 11.8,-20.5 13.4,-32.3 z"
           id="path89"
           style="fill:#160032" />
        <path
           class="st0"
           d="m 398.8,849.7 c 50.7,0 91.9,41.1 91.9,91.9 0,50.7 -41.1,91.9 -91.9,91.9 -50.7,0 -91.9,-41.1 -91.9,-91.9 0,-50.7 41.2,-91.9 91.9,-91.9 z m 82.2,91.9 c 0,-45.4 -36.8,-82.2 -82.2,-82.2 -45.4,0 -82.2,36.8 -82.2,82.2 0,45.4 36.8,82.2 82.2,82.2 45.4,0 82.2,-36.8 82.2,-82.2 z"
           id="path90"
           style="fill:#160032" />
        <path
           class="st0"
           d="m 456.4,935.6 v 11.9 h -29.6 c -0.7,3.4 -2.1,6.7 -4,9.7 l 20.9,21 -8.4,8.4 -20.9,-20.9 c -2.9,1.9 -6.2,3.3 -9.7,4 v 29.6 h -11.9 v -29.6 c -3.4,-0.7 -6.7,-2.1 -9.7,-4 l -20.9,20.9 -8.4,-8.4 20.9,-20.9 c -1.9,-3 -3.3,-6.2 -4,-9.7 h -29.6 v -11.9 h 29.6 c 0.7,-3.4 2.1,-6.7 4,-9.7 l -20.9,-21 8.4,-8.4 20.9,20.9 c 2.9,-1.9 6.2,-3.3 9.7,-4 V 884 h 11.9 v 29.6 c 3.4,0.7 6.7,2.1 9.7,4 l 20.9,-20.9 8.4,8.4 -20.9,20.9 c 1.9,3 3.3,6.2 4,9.7 h 29.6 z"
           id="path91"
           style="fill:#160032" />
        <path
           class="st0"
           d="m 446.9,880.5 -6.5,6.5 c -9.4,-7.2 -20.6,-11.8 -32.3,-13.4 v -9.2 c 14.1,1.7 27.5,7.3 38.8,16.1 z"
           id="path92"
           style="fill:#160032" />
        <path
           class="st0"
           d="m 440.4,996.2 6.5,6.5 c -11.2,8.8 -24.6,14.4 -38.8,16.1 v -9.2 c 11.7,-1.6 22.8,-6.2 32.3,-13.4 z"
           id="path93"
           style="fill:#160032" />
        <path
           class="st0"
           d="m 389.6,1009.6 v 9.2 c -14.2,-1.7 -27.6,-7.3 -38.8,-16.1 l 6.5,-6.5 c 9.4,7.2 20.5,11.8 32.3,13.4 z"
           id="path94"
           style="fill:#160032" />
        <path
           class="st0"
           d="m 389.6,864.4 v 9.2 c -11.8,1.6 -22.9,6.2 -32.3,13.4 l -6.5,-6.5 c 11.2,-8.8 24.6,-14.4 38.8,-16.1 z"
           id="path95"
           style="fill:#160032" />
        <path
           class="st0"
           d="m 337.7,893.5 6.5,6.5 c -7.2,9.4 -11.8,20.6 -13.4,32.3 h -9.2 c 1.7,-14.1 7.3,-27.5 16.1,-38.8 z"
           id="path96"
           style="fill:#160032" />
        <path
           class="st0"
           d="m 344.2,983.2 -6.5,6.5 c -8.8,-11.2 -14.4,-24.6 -16.1,-38.8 h 9.2 c 1.6,11.7 6.2,22.8 13.4,32.3 z"
           id="path97"
           style="fill:#160032" />
      </g>
    </g>
  </g>
</svg>
