<?xml version="1.0" encoding="UTF-8" standalone="no"?>
<!-- Created with Inkscape (http://www.inkscape.org/) -->

<svg
   width="210mm"
   height="297mm"
   viewBox="0 0 210 297"
   version="1.1"
   id="svg1"
   inkscape:version="1.3.2 (091e20e, 2023-11-25)"
   sodipodi:docname="galactic-empire.svg"
   xmlns:inkscape="http://www.inkscape.org/namespaces/inkscape"
   xmlns:sodipodi="http://sodipodi.sourceforge.net/DTD/sodipodi-0.dtd"
   xmlns="http://www.w3.org/2000/svg"
   xmlns:svg="http://www.w3.org/2000/svg">
  <sodipodi:namedview
     id="namedview1"
     pagecolor="#ffffff"
     bordercolor="#666666"
     borderopacity="1.0"
     inkscape:showpageshadow="2"
     inkscape:pageopacity="0.0"
     inkscape:pagecheckerboard="0"
     inkscape:deskcolor="#d1d1d1"
     inkscape:document-units="mm"
     inkscape:zoom="0.2102413"
     inkscape:cx="394.78447"
     inkscape:cy="558.88162"
     inkscape:window-width="736"
     inkscape:window-height="480"
     inkscape:window-x="224"
     inkscape:window-y="25"
     inkscape:window-maximized="0"
     inkscape:current-layer="layer1" />
  <defs
     id="defs1" />
  <g
     inkscape:label="Layer 1"
     inkscape:groupmode="layer"
     id="layer1">
    <g
       id="GE_01"
       transform="matrix(0.26458333,0,0,0.26458333,-53.39796,-154.13181)">
      <g
         id="g164">
        <path
           class="st0"
           d="m 698,898.5 c 8.4,16.6 11.4,35.7 8.8,54.1 -2.6,18.8 -11.3,36.7 -24.4,50.4 -11.8,12.4 -27.1,21.4 -43.6,25.6 -18.5,4.8 -38.5,3.6 -56.3,-3.4 -17.7,-6.9 -33.1,-19.4 -43.4,-35.2 -10.1,-15.3 -15.4,-33.7 -15,-52 0.3,-20 7.3,-39.8 19.8,-55.4 15.2,-19.3 38.5,-32.1 63,-34.4 17.5,-1.7 35.5,1.6 51.1,9.7 17.1,8.9 31.4,23.4 40,40.6 z m -7.4,81.5 c 13,-23.7 13.5,-53.7 1.4,-77.9 -2.2,1.1 -4.3,2.1 -6.5,3.2 2.3,4.7 4.2,9.6 5.5,14.7 -2.2,0.6 -4.4,1.2 -6.5,1.7 3.4,13 3,26.8 -1.1,39.6 2.2,0.7 4.3,1.4 6.5,2.1 -1.5,4.5 -3.4,8.9 -5.6,13.1 2,1.2 4.1,2.4 6.3,3.5 z M 682,899 c 2,-1.3 4.1,-2.5 6.2,-3.8 -4,-6.5 -8.9,-12.5 -14.5,-17.6 -14.1,-13.2 -32.9,-21.3 -52.3,-22.6 -0.1,2.4 -0.3,4.8 -0.5,7.3 5.2,0.4 10.4,1.2 15.5,2.6 -0.6,2.2 -1.2,4.4 -1.8,6.6 12.9,3.5 24.7,10.9 33.7,20.7 1.7,-1.5 3.3,-3 5,-4.5 3.3,3.4 6.1,7.3 8.7,11.3 z m 4.5,87.8 c -2,-1.4 -4,-2.7 -6.1,-4.1 -3,4.3 -6.3,8.4 -10,12.1 -1.6,-1.6 -3.2,-3.2 -4.7,-4.8 -9.6,9.4 -21.7,16 -34.8,18.9 0.5,2.2 0.9,4.4 1.5,6.5 -4.6,1.2 -9.4,1.6 -14.2,1.8 0,2.5 0.1,4.9 0.2,7.3 8,-0.3 16,-1.6 23.7,-4.1 18,-5.7 33.8,-17.9 44.4,-33.6 z m -44.5,-57 c 9,-3.4 17.9,-6.8 26.9,-10.2 -1.9,-5 -4.5,-9.7 -7.7,-14 -7.7,5.8 -15.3,11.5 -23,17.3 -4.3,-5.7 -10.8,-9.6 -17.8,-10.8 1.5,-9.5 3.1,-18.9 4.7,-28.4 -5.3,-0.8 -10.7,-0.9 -16,-0.3 1.2,9.5 2.3,19 3.5,28.5 -7.1,0.9 -13.7,4.5 -18.2,10 -7.4,-6.1 -14.8,-12.2 -22.2,-18.2 -3.4,4.2 -6.2,8.8 -8.3,13.7 8.8,3.8 17.6,7.5 26.5,11.3 -2.8,6.5 -3,14.1 -0.4,20.8 -8.9,3.5 -17.9,6.8 -26.9,10.2 1.9,5 4.5,9.7 7.7,14 7.7,-5.8 15.3,-11.5 23,-17.3 4.3,5.7 10.8,9.6 17.8,10.8 -1.5,9.5 -3.1,18.9 -4.6,28.4 5.3,0.8 10.7,1 16,0.4 -1.1,-9.5 -2.3,-19 -3.4,-28.5 7.1,-0.9 13.7,-4.6 18.3,-10 7.4,6.1 14.8,12.2 22.2,18.2 3.4,-4.2 6.1,-8.8 8.3,-13.7 -8.8,-3.8 -17.6,-7.5 -26.5,-11.3 2.5,-6.6 2.6,-14.2 0.1,-20.9 z m -28.3,-67.7 c -0.1,-2.4 -0.1,-4.8 -0.2,-7.3 -7.8,0.3 -15.6,1.5 -23.1,3.9 -18.3,5.7 -34.5,17.9 -45.1,33.8 2,1.4 4,2.7 6,4.1 3,-4.3 6.2,-8.5 10.1,-12.1 1.5,1.6 3.1,3.2 4.7,4.8 9.6,-9.4 21.8,-16 34.8,-18.8 -0.5,-2.2 -1,-4.4 -1.4,-6.6 4.7,-1.1 9.4,-1.6 14.2,-1.8 z m -3.3,162.3 c 0.2,-2.4 0.3,-4.8 0.5,-7.3 -5.2,-0.4 -10.4,-1.2 -15.5,-2.6 0.6,-2.2 1.2,-4.3 1.8,-6.5 -12.9,-3.5 -24.7,-10.9 -33.7,-20.7 -1.7,1.5 -3.3,3 -5,4.5 -3.2,-3.5 -6.1,-7.4 -8.6,-11.4 -2.1,1.3 -4.1,2.5 -6.2,3.8 4.9,7.9 11,15 18.2,20.9 13.5,11.3 30.8,18.2 48.5,19.3 z M 547.6,902.8 c -2.1,-1.2 -4.3,-2.3 -6.4,-3.5 -13,23.8 -13.5,53.7 -1.4,78 2.2,-1.1 4.4,-2.2 6.5,-3.2 -2.3,-4.7 -4.2,-9.7 -5.5,-14.7 2.2,-0.6 4.4,-1.1 6.6,-1.8 -3.4,-12.9 -3,-26.8 1.1,-39.5 -2.2,-0.7 -4.3,-1.4 -6.5,-2.1 1.5,-4.6 3.4,-9 5.6,-13.2 z"
           id="path164"
           style="fill:#160032" />
      </g>
    </g>
  </g>
</svg>
