<?xml version="1.0" encoding="utf-8"?>
<!-- Generator: Adobe Illustrator 27.9.0, SVG Export Plug-In . SVG Version: 6.00 Build 0)  -->
<svg version="1.1" id="Layer_1" xmlns="http://www.w3.org/2000/svg" xmlns:xlink="http://www.w3.org/1999/xlink" x="0px" y="0px"
	 viewBox="0 0 400 400" style="enable-background:new 0 0 400 400;" xml:space="preserve">
<style type="text/css">
	.st0{fill:none;}
	.st1{fill:#007680;}
</style>
<rect class="st0" width="400" height="400"/>
<g>
	<g>
		<path class="st1" d="M192.4,268.7c0.9-1.8,1.7-3.6,2.3-5.6c0.6-2,1-4,1.2-5.9l-5.7-1.7c0.2-3-0.1-6.1-1-8.8l5.2-2.9
			c-1.2-3.9-3.2-7.4-5.8-10.6l-5.2,2.9c-2-2.2-4.2-4.1-6.9-5.6l1.7-5.7c-1.8-0.9-3.6-1.7-5.6-2.3c-2-0.6-4-1-5.9-1.2l-1.7,5.7
			c-3-0.2-6.1,0.1-8.8,1l-2.9-5.2c-3.9,1.2-7.4,3.2-10.6,5.8l2.9,5.2c-2.2,2-4.1,4.2-5.6,6.9l-5.7-1.7c-0.9,1.8-1.7,3.6-2.3,5.6
			c-0.6,2-1,4-1.2,5.9l5.7,1.7c-0.2,3,0.1,6.1,1,8.8l-5.2,2.9c1.2,3.9,3.2,7.4,5.8,10.6l5.2-2.9c2,2.2,4.2,4.1,6.9,5.6l-1.7,5.7
			c1.8,0.9,3.6,1.7,5.6,2.3c2,0.6,4,1,5.9,1.2l1.7-5.7c3,0.2,6.1-0.1,8.8-1l2.9,5.2c3.9-1.2,7.4-3.2,10.6-5.8l-2.9-5.2
			c2.2-2,4.1-4.2,5.6-6.9L192.4,268.7z M159.3,267.4c-7.4-2.2-11.8-10-9.5-17.4c2.2-7.4,10-11.8,17.4-9.5c7.4,2.2,11.8,10,9.5,17.4
			C174.5,265.3,166.7,269.5,159.3,267.4z"/>
		<path class="st1" d="M268.6,229.9c0.4-2.3,0.8-4.7,0.8-7.2s-0.2-4.8-0.8-7.2h-7c-0.9-3.5-2.2-6.7-4.1-9.8l5-5
			c-2.6-4-6.2-7.4-10.1-10.1l-5,5c-3-1.8-6.3-3.3-9.8-4.1v-7c-2.3-0.4-4.7-0.8-7.2-0.8c-2.4,0-4.8,0.2-7.2,0.8v7
			c-3.5,0.9-6.7,2.2-9.8,4.1l-5-5c-4,2.6-7.4,6.2-10.1,10.1l5,5c-1.8,3-3.3,6.3-4.1,9.8h-7c-0.4,2.3-0.8,4.7-0.8,7.2
			c0,2.4,0.2,4.8,0.8,7.2h7c0.9,3.5,2.2,6.7,4.1,9.8l-5,5c2.6,4,6.2,7.4,10.1,10.1l5-5c3,1.8,6.3,3.3,9.8,4.1v7
			c2.3,0.4,4.7,0.8,7.2,0.8c2.4,0,4.8-0.2,7.2-0.8v-7c3.5-0.9,6.7-2.2,9.8-4.1l5,5c4-2.6,7.4-6.2,10.1-10.1l-5-5
			c1.8-3,3.3-6.3,4.1-9.8L268.6,229.9L268.6,229.9z M230.4,239.4c-9.1,0-16.7-7.5-16.7-16.7c0-9.3,7.5-16.7,16.7-16.7
			s16.7,7.5,16.7,16.7C247,232,239.5,239.4,230.4,239.4z"/>
	</g>
	<path class="st1" d="M381.3,266.9h-7.6c-3.5-36.5-33.7-65.1-70.7-66.3v-24.3c0-12.3-9.7-22.4-21.8-23.2v-52.2
		c0-16.1-13.1-29.2-29.2-29.2h-43.5V45.3c4.7-2.9,7.8-7.9,7.8-13.9c0-9-7.3-16.3-16.3-16.3c-9,0-16.3,7.3-16.3,16.3
		c0,5.9,3.2,11.1,7.8,13.9v26.4h-43.6c-16.1,0-29.2,13.1-29.2,29.2v52.5c-12.1,0.8-21.8,10.9-21.8,23.2V196
		c-27.6-1.1-50.2-22.2-53.7-49.3h9.3l16.8-29.3L54.9,92.5l-14.8,8.4l9.6,16.4l-7,12.2H28.5l-7-12.2l9.6-16.4l-14.8-8.5L1.9,117.3
		l16.8,29.3h7.6C29.9,183,60,211.7,97,212.9v78.7c0,12.8,10.4,23.2,23.2,23.2H140v35.3L118.2,385h64.5l-21.9-34.8v-35.3h78.5v35.3
		l-22,34.8h64.5l-21.9-34.8v-35.3h19.7c12.8,0,23.2-10.4,23.2-23.2v-73.9c27.6,1.1,50.2,22.2,53.7,49.3h-9l-16.8,29.3l14.4,24.9
		l14.8-8.5l-9.6-16.4l7-12.2h14.1l7,12.2l-9.6,16.4l14.8,8.5l14.4-24.9L381.3,266.9z M236.6,99.6c7.4,0,13.4,6.1,13.4,13.4
		s-6.1,13.4-13.4,13.4s-13.4-6.1-13.4-13.4C223.1,105.4,229.2,99.6,236.6,99.6z M163.4,99.6c7.4,0,13.4,6.1,13.4,13.4
		s-6.1,13.4-13.4,13.4S150,120.4,150,113C150.1,105.4,156,99.6,163.4,99.6z M278.1,291.7H121.9V176.3h156.4v115.5h-0.2V291.7z"/>
</g>
</svg>
