<?xml version="1.0" encoding="UTF-8" standalone="no"?>
<!-- Created with Inkscape (http://www.inkscape.org/) -->

<svg
   width="86mm"
   height="54mm"
   viewBox="0 0 86 54"
   version="1.1"
   id="svg1"
   inkscape:version="1.3.2 (091e20e, 2023-11-25)"
   sodipodi:docname="layered-drawing-with-paths-bgbox.svg"
   xmlns:inkscape="http://www.inkscape.org/namespaces/inkscape"
   xmlns:sodipodi="http://sodipodi.sourceforge.net/DTD/sodipodi-0.dtd"
   xmlns="http://www.w3.org/2000/svg"
   xmlns:svg="http://www.w3.org/2000/svg">
  <sodipodi:namedview
     id="namedview1"
     pagecolor="#ffffff"
     bordercolor="#666666"
     borderopacity="1.0"
     inkscape:showpageshadow="2"
     inkscape:pageopacity="0.0"
     inkscape:pagecheckerboard="0"
     inkscape:deskcolor="#d1d1d1"
     inkscape:document-units="mm"
     inkscape:zoom="1.1893044"
     inkscape:cx="116.87504"
     inkscape:cy="57.596693"
     inkscape:window-width="1144"
     inkscape:window-height="728"
     inkscape:window-x="224"
     inkscape:window-y="48"
     inkscape:window-maximized="0"
     inkscape:current-layer="layer3" />
  <defs
     id="defs1" />
  <rect
     style="fill:none;stroke:#aa0000;stroke-width:0.634875"
     id="rect1"
     width="86"
     height="54"
     x="0.2883257"
     y="0.30584294"
     inkscape:label="background-rect"
     rx="2"
     ry="2" />
  <g
     inkscape:groupmode="layer"
     id="layer3"
     inkscape:label="Layer 2"
     transform="matrix(26.06426,0,0,26.06426,-10.424326,-8.7100583)">
    <circle
       style="fill:#ff00ff;stroke:#aa0000;stroke-width:0.023189"
       id="path3"
       cx="2.4381285"
       cy="1.4389228"
       r="0.22772422"
       inkscape:label="path3" />
    <path
       d="m 1.3377276,1.383465 h 0.01709 v 0.1394726 h -0.01709 z m 0.055827,0.1124136 q 0,0.00741 0.00541,0.011678 0.00541,0.00427 0.012817,0.00427 0.00902,0 0.01747,-0.00418 0.014242,-0.00693 0.014242,-0.022692 v -0.013767 q -0.00313,0.00199 -0.00807,0.00332 -0.00494,0.00133 -0.00968,0.0019 l -0.010349,0.00133 q -0.0093,0.00123 -0.013957,0.00389 -0.00788,0.00446 -0.00788,0.014242 z m 0.041395,-0.03456 q 0.00589,-7.596e-4 0.00788,-0.00494 0.00114,-0.00228 0.00114,-0.00655 0,-0.00873 -0.00627,-0.012628 -0.00617,-0.00399 -0.017755,-0.00399 -0.013387,0 -0.018989,0.00722 -0.00313,0.00399 -0.00408,0.011868 h -0.015951 q 4.747e-4,-0.018799 0.012153,-0.02611 0.011773,-0.00741 0.027249,-0.00741 0.017944,0 0.029148,0.00684 0.011108,0.00684 0.011108,0.021267 v 0.05858 q 0,0.00266 0.00104,0.00427 0.00114,0.00161 0.00465,0.00161 0.00114,0 0.00256,-9.49e-5 0.00142,-1.899e-4 0.00304,-4.748e-4 v 0.012628 q -0.00399,0.00114 -0.00608,0.00142 -0.00209,2.849e-4 -0.0057,2.849e-4 -0.00883,0 -0.012817,-0.00627 -0.00209,-0.00332 -0.00294,-0.0094 -0.00522,0.00684 -0.015001,0.011868 -0.00978,0.00503 -0.021552,0.00503 -0.014147,0 -0.023166,-0.00854 -0.00893,-0.00864 -0.00893,-0.021552 0,-0.014147 0.00883,-0.021932 0.00883,-0.00779 0.023166,-0.00959 z m -0.014147,-0.042535 z m 0.1313073,0.00247 h 0.018894 q -0.00361,0.00978 -0.016045,0.044624 -0.0093,0.026204 -0.015571,0.042725 -0.014811,0.038927 -0.020888,0.047472 -0.00608,0.00854 -0.020888,0.00854 -0.00361,0 -0.0056,-2.848e-4 -0.0019,-2.849e-4 -0.00475,-0.00104 v -0.015571 q 0.00446,0.00123 0.00646,0.00152 0.00199,2.848e-4 0.00351,2.848e-4 0.00475,0 0.00693,-0.00161 0.00228,-0.00152 0.0038,-0.0038 4.748e-4,-7.595e-4 0.00342,-0.00779 0.00294,-0.00703 0.00427,-0.010444 L 1.4780546,1.4212527 h 0.019368 l 0.027249,0.082791 z m -0.027534,-0.00247 z m 0.1035838,1.898e-4 q 0.010824,0 0.020983,0.00513 0.010159,0.00503 0.015476,0.013102 0.00513,0.00769 0.00684,0.017944 0.00152,0.00703 0.00152,0.022407 h -0.074531 q 4.747e-4,0.015476 0.00731,0.024875 0.00684,0.0093 0.021173,0.0093 0.013387,0 0.021362,-0.00883 0.00456,-0.00513 0.00646,-0.011868 h 0.016805 q -6.646e-4,0.0056 -0.00446,0.012533 -0.0037,0.00684 -0.00835,0.011203 -0.00778,0.0076 -0.019274,0.010254 -0.00617,0.00152 -0.013957,0.00152 -0.018989,0 -0.032186,-0.013767 -0.013197,-0.013862 -0.013197,-0.038737 0,-0.024496 0.013292,-0.039782 0.013292,-0.015286 0.034749,-0.015286 z m 0.027249,0.045003 q -0.00104,-0.011108 -0.00484,-0.017754 -0.00703,-0.012343 -0.023451,-0.012343 -0.011773,0 -0.019748,0.00855 -0.00797,0.00845 -0.00845,0.021552 z m -0.028863,-0.045193 z m 0.067885,0.00247 h 0.016235 v 0.017565 q 0.00199,-0.00513 0.00978,-0.012438 0.00778,-0.00741 0.017944,-0.00741 4.747e-4,0 0.00161,9.5e-5 0.00114,9.49e-5 0.00389,3.798e-4 v 0.018039 q -0.00152,-2.848e-4 -0.00285,-3.798e-4 -0.00123,-9.49e-5 -0.00275,-9.49e-5 -0.012912,0 -0.019843,0.00836 -0.00693,0.00826 -0.00693,0.019084 v 0.058485 h -0.01709 z m 0.1118439,0.1016849 q 9.494e-4,-0.017565 0.00722,-0.030572 0.00636,-0.013007 0.024685,-0.023641 l 0.018229,-0.010539 q 0.012248,-0.00712 0.017185,-0.012153 0.00778,-0.00788 0.00778,-0.018039 0,-0.011868 -0.00712,-0.018799 -0.00712,-0.00703 -0.018989,-0.00703 -0.017565,0 -0.024306,0.013292 -0.00361,0.00712 -0.00399,0.019748 H 1.809598 q 2.848e-4,-0.017755 0.00655,-0.028958 0.011108,-0.019748 0.039212,-0.019748 0.023356,0 0.034085,0.012628 0.010824,0.012628 0.010824,0.028103 0,0.01633 -0.011488,0.027913 -0.00665,0.00674 -0.023831,0.01633 l -0.013007,0.00722 q -0.0093,0.00513 -0.014621,0.00978 -0.00949,0.00826 -0.011963,0.018324 h 0.074246 v 0.01614 z"
       id="text1"
       style="font-size:0.194445px;line-height:1.25;font-family:Helvetica;-inkscape-font-specification:Helvetica;stroke-width:0.0104167"
       aria-label="layer 2" />
  </g>
  <g
     inkscape:label="Layer 1"
     inkscape:groupmode="layer"
     id="layer1"
     transform="matrix(26.06426,0,0,26.06426,-10.424326,-8.7100583)">
    <rect
       style="fill:#0000ff;stroke:#0000ff;stroke-width:0.023189"
       id="rect3"
       width="0.55179334"
       height="0.32406908"
       x="2.1681738"
       y="0.61516571" />
    <path
       d="m 1.3655659,0.70163245 h 0.01709 v 0.1394718 h -0.01709 z m 0.055827,0.11241294 q 0,0.007406 0.00541,0.011678 0.00541,0.004272 0.012817,0.004272 0.00902,0 0.01747,-0.004178 0.014242,-0.006931 0.014242,-0.0226915 v -0.0137668 q -0.00313,0.001994 -0.00807,0.003323 -0.00494,0.001329 -0.00968,0.001899 l -0.010349,0.001329 q -0.0093,0.001234 -0.013957,0.003893 -0.00788,0.004462 -0.00788,0.0142415 z m 0.041395,-0.0345594 q 0.00589,-7.5955e-4 0.00788,-0.004937 0.00114,-0.002279 0.00114,-0.006551 0,-0.008735 -0.00627,-0.0126275 -0.00617,-0.003988 -0.017754,-0.003988 -0.013387,0 -0.018989,0.007216 -0.00313,0.003988 -0.00408,0.0118679 h -0.01595 q 4.747e-4,-0.0187988 0.012153,-0.0261094 0.011773,-0.007406 0.027249,-0.007406 0.017944,0 0.029148,0.006836 0.011108,0.006836 0.011108,0.0212673 v 0.0585801 q 0,0.002658 0.00104,0.004272 0.00114,0.001614 0.00465,0.001614 0.00114,0 0.00256,-9.494e-5 0.00142,-1.8989e-4 0.00304,-4.7472e-4 v 0.0126275 q -0.00399,0.001139 -0.00608,0.001424 -0.00209,2.8483e-4 -0.0057,2.8483e-4 -0.00883,0 -0.012817,-0.006266 -0.00209,-0.003323 -0.00294,-0.009399 -0.00522,0.006836 -0.015001,0.0118679 -0.00978,0.005032 -0.021552,0.005032 -0.014147,0 -0.023166,-0.008545 -0.00892,-0.00864 -0.00892,-0.0215521 0,-0.0141466 0.00883,-0.0219319 0.00883,-0.007785 0.023166,-0.009589 z m -0.014147,-0.0425346 z m 0.1313067,0.002469 h 0.018894 q -0.00361,0.009779 -0.016045,0.0446234 -0.0093,0.0262044 -0.015571,0.0427245 -0.014811,0.0389268 -0.020887,0.0474717 -0.00608,0.008545 -0.020888,0.008545 -0.00361,0 -0.0056,-2.8483e-4 -0.0019,-2.8483e-4 -0.00475,-0.001044 v -0.0155707 q 0.00446,0.001234 0.00646,0.001519 0.00199,2.8483e-4 0.00351,2.8483e-4 0.00475,0 0.00693,-0.001614 0.00228,-0.001519 0.0038,-0.003798 4.747e-4,-7.5955e-4 0.00342,-0.007785 0.00294,-0.007026 0.00427,-0.0104438 L 1.5058922,0.73941991 h 0.019368 l 0.027249,0.0827906 z m -0.027534,-0.002469 z m 0.1035832,1.8989e-4 q 0.010823,0 0.020982,0.005127 0.010159,0.005032 0.015476,0.0131022 0.00513,0.00769 0.00684,0.0179443 0.00152,0.007026 0.00152,0.0224066 h -0.074531 q 4.747e-4,0.0154758 0.00731,0.0248752 0.00684,0.009304 0.021172,0.009304 0.013387,0 0.021362,-0.00883 0.00456,-0.005127 0.00646,-0.0118679 h 0.016805 q -6.646e-4,0.005602 -0.00446,0.0125325 -0.0037,0.006836 -0.00836,0.0112033 -0.00778,0.007595 -0.019273,0.0102539 -0.00617,0.001519 -0.013957,0.001519 -0.018989,0 -0.032186,-0.0137668 -0.013197,-0.0138617 -0.013197,-0.0387369 0,-0.0244954 0.013292,-0.0397813 0.013292,-0.0152859 0.034749,-0.0152859 z m 0.027249,0.0450032 q -0.00104,-0.0111084 -0.00484,-0.0177544 -0.00703,-0.0123426 -0.023451,-0.0123426 -0.011773,0 -0.019748,0.008545 -0.00798,0.00845 -0.00845,0.0215521 z m -0.028863,-0.045193 z m 0.067884,0.002469 h 0.016235 v 0.0175645 q 0.00199,-0.005127 0.00978,-0.0124376 0.00778,-0.007406 0.017944,-0.007406 4.747e-4,0 0.00161,9.494e-5 0.00114,9.495e-5 0.00389,3.7978e-4 v 0.0180392 q -0.00152,-2.8484e-4 -0.00285,-3.7978e-4 -0.00123,-9.494e-5 -0.00275,-9.494e-5 -0.012912,0 -0.019843,0.008355 -0.00693,0.00826 -0.00693,0.0190836 v 0.0584851 h -0.01709 z m 0.1243758,0.005412 v -0.0131022 q 0.018514,-0.001804 0.025824,-0.005981 0.00731,-0.004272 0.010919,-0.020033 h 0.013482 v 0.13538923 h -0.018229 v -0.0962726 z"
       id="text2"
       style="font-size:0.194444px;line-height:1.25;font-family:Helvetica;-inkscape-font-specification:Helvetica;stroke-width:0.0104167"
       aria-label="layer 1"
       inkscape:label="text2" />
  </g>
</svg>
