<?xml version="1.0" encoding="UTF-8" standalone="no"?>
<!-- Created with Inkscape (http://www.inkscape.org/) -->

<svg
   width="210mm"
   height="297mm"
   viewBox="0 0 210 297"
   version="1.1"
   id="svg1"
   inkscape:version="1.3.2 (091e20e, 2023-11-25)"
   sodipodi:docname="rebel-alliance.svg"
   xmlns:inkscape="http://www.inkscape.org/namespaces/inkscape"
   xmlns:sodipodi="http://sodipodi.sourceforge.net/DTD/sodipodi-0.dtd"
   xmlns="http://www.w3.org/2000/svg"
   xmlns:svg="http://www.w3.org/2000/svg">
  <sodipodi:namedview
     id="namedview1"
     pagecolor="#ffffff"
     bordercolor="#666666"
     borderopacity="1.0"
     inkscape:showpageshadow="2"
     inkscape:pageopacity="0.0"
     inkscape:pagecheckerboard="0"
     inkscape:deskcolor="#d1d1d1"
     inkscape:document-units="mm"
     inkscape:zoom="0.2102413"
     inkscape:cx="394.78447"
     inkscape:cy="558.88162"
     inkscape:window-width="736"
     inkscape:window-height="480"
     inkscape:window-x="148"
     inkscape:window-y="80"
     inkscape:window-maximized="0"
     inkscape:current-layer="g163" />
  <defs
     id="defs1" />
  <g
     inkscape:label="Layer 1"
     inkscape:groupmode="layer"
     id="layer1">
    <g
       id="RA_01"
       transform="matrix(0.26458333,0,0,0.26458333,-170.92083,-101.25604)"
       inkscape:label="rebel-alliance">
      <g
         id="g163"
         transform="translate(-2.5984251e-6)">
        <path
           class="st0"
           d="m 1114.7,936.8 c 0.2,2 0.4,3.9 0.3,5.9 -0.3,8.5 -1.6,16.9 -4.2,25 -3.8,11.9 -10.6,22.9 -19.8,31.4 -8.8,8 -19.7,13.6 -31.3,16.3 -3.9,0.9 -7.9,1.5 -12,1.8 -4.8,0.4 -9.7,0.3 -14.5,-0.2 -9.6,-1 -19.1,-4 -27.6,-8.7 -10.2,-5.6 -19,-13.6 -25.5,-23.2 -7.4,-10.8 -11.9,-23.4 -13,-36.4 -0.8,-9 0.2,-18.2 2.7,-26.9 2.9,-10 8,-19.3 14.6,-27.2 5.1,-6.1 11.2,-11.3 17.8,-15.7 0.2,-0.2 0.5,-0.2 0.7,-0.2 -0.2,0.5 -0.7,0.9 -1,1.3 -3.2,3.9 -6,8.1 -8.4,12.5 -2.8,5.2 -5,10.8 -6.3,16.6 -1.4,6.4 -1.6,13.2 0,19.7 1.8,7.4 6,14.1 11.3,19.4 1.9,1.7 4,3.1 6.3,4.3 3,1.5 6.3,2.6 9.8,2.4 3.3,-0.1 6.4,-1.5 8.9,-3.7 1.2,-1.1 2.4,-2.2 3.2,-3.6 3.2,-5.5 4.6,-11.9 4.3,-18.1 -0.2,-6.5 -2.2,-12.8 -5.1,-18.6 -1.7,-3.7 -4.6,-6.8 -7.9,-9.2 -2,-1.4 -4.1,-2.5 -6.3,-3.5 2.9,-3.2 5.8,-6.5 8.8,-9.7 5.3,2.7 9.8,6.9 13.1,11.8 -0.1,-4.1 -1.1,-8.1 -2.7,-11.9 -1,-2.4 -2.4,-4.8 -3.9,-6.9 4.5,-5.2 9.1,-10.3 13.6,-15.5 4.5,5.1 9,10.2 13.5,15.3 -1.3,2 -2.4,4.1 -3.4,6.2 -1.8,4 -3,8.4 -3.2,12.8 3.4,-5 8.1,-9 13.3,-11.9 2.9,3.2 5.7,6.5 8.6,9.7 -5.2,2 -9.5,5.8 -12.7,10.3 -1.7,2.4 -2.8,5.2 -3.8,8 -1.8,5.6 -2.7,11.6 -2.3,17.5 0.3,5.1 1.7,10.3 4.6,14.5 1.5,2.3 3.7,4 6.1,5.2 2.7,1.3 5.8,1.7 8.7,1.2 3.2,-0.5 6.2,-2 8.9,-3.8 1.8,-1.2 3.5,-2.5 5,-4.2 7.2,-7.9 11.6,-18.4 11.6,-29.1 0.1,-6 -1.2,-12.1 -3.5,-17.7 -2.2,-5.6 -5.3,-10.8 -8.9,-15.6 -1.4,-1.9 -2.9,-3.8 -4.5,-5.5 0,-0.1 -0.1,-0.3 -0.2,-0.4 0.4,0 0.9,0.2 1.3,0.4 4.7,3.4 9.3,7 13.5,11 4.3,4.1 8.1,8.7 11.2,13.8 4.6,7.5 7.5,15.9 9.1,24.5 0.5,2.8 0.9,5.7 1.2,8.6 z"
           id="path162"
           style="fill:#160032" />
        <path
           class="st0"
           d="m 1040.9,849.7 c 50.7,0 91.9,41.1 91.9,91.9 0,50.7 -41.1,91.9 -91.9,91.9 -50.7,0 -91.9,-41.1 -91.9,-91.9 0,-50.7 41.1,-91.9 91.9,-91.9 z m 80.8,91.9 c 0,-44.7 -36.2,-80.9 -80.9,-80.9 -44.7,0 -80.8,36.2 -80.8,80.9 0,44.7 36.2,80.9 80.8,80.9 44.7,0 80.9,-36.2 80.9,-80.9 z"
           id="path163"
           style="fill:#160032" />
      </g>
    </g>
  </g>
</svg>
